<svg id="logo" xmlns="http://www.w3.org/2000/svg" width="844" height="291" viewBox="0 0 844 291">
  <defs>
    <style>
      .cls-1 {
        fill: #d42a2a;
      }

      .cls-1, .cls-2, .cls-3 {
        fill-rule: evenodd;
      }

      .cls-3 {
        fill: #939598;
      }
    </style>
  </defs>
  <path id="zang" class="cls-1" d="M651,32c9.5-2.734,25.25,1.484,31,14-19,7.666-39,15.334-58,23-4.333-7-8.667-13-13-20C624.332,43.667,637.668,37.333,651,32Zm35,18c7,9.332,13,18.668,20,28-16.009,4.392-35.861,13.155-54,21-22.474,9.72-41.327,17.275-57-12C625,74.668,656,62.332,686,50Zm-49,62h30c-2.4,14.7-11.845,29.662-10,44,14.475,5.26,32.617,2.748,43-4q5.5-20,11-40h33c-4.934,21.356-7.508,40.063-17,53-11.959,16.3-32.637,22.453-74,18a41.948,41.948,0,0,1-19-7,62.966,62.966,0,0,1-16,6c-19.624,3.92-50.757,6.752-70-1-10.312-4.154-20.783-13.319-21-26-0.1-5.787,1.514-14.808,7-20h36c-5.809,7.547-13.816,17.5-6,22,38.334,8.918,59.754.36,65.032-26.733C630.066,124.959,633,112,633,112h4Zm133,0h34c-10.24,31.887-11.087,73.807-40,87-5.347,1.188-10.652,2.812-16,4-6.653,1.478-13.348,2.522-20,4l6-26c7.438-2.778,15.166-4.125,19-10C762.363,156.653,764.966,135.048,770,112ZM728.062,72.5a14.751,14.751,0,1,1-14.937,14.75A14.845,14.845,0,0,1,728.062,72.5Z"/>
  <path id="eghtesad" class="cls-2" d="M135,90c-0.155.682-5.381,20.71-9,36-3.623,15.307-7.032,23.838-5,31,0.866,3.052,7.24,4.015,15,4,4.519-.009,9.75-0.032,14-1,6.517-1.484,11.068-5.4,12-7,3.162-5.425,3.327-6.066,5-14,2.459-11.665,6-27,6-27h33v4s5.649-.88,7-1c51.609-4.59,92.985.366,78,46h6c18.238-1.883,19.756-14.86,23-28,1.452-5.88,2.541-12.172,4-19h34c-2.14,7-5.622,18.9-7.77,28.829-0.637,2.946-3.757,11.458-1.23,14.171,4.977,5.344,18,4,18,4s-0.573-1.6-.391-7.851c0.247-8.5,4.839-16.071,10.391-22.149,14.264-15.617,42.091-22.4,66-13,19.629,7.715,21.515,37.215,5,52a53.79,53.79,0,0,1-25,13c-12.427,2.789-27.521,2.992-42,3-12.918.007-25.346,0.036-35-1a46.047,46.047,0,0,1-20-7s-18.979,9.617-40,8H206.517A103.979,103.979,0,0,1,189,184a44.726,44.726,0,0,1-14-6,118.763,118.763,0,0,1-14,5c-24.494,6.616-59.176,3.806-71-13-6.777-9.633-.835-27.339,4-46,3.478-13.425,6.18-26.61,8-34h33Zm351,0h34c-1.879,8.376-5.22,21.586-9,37-5.688,23.194-10.331,45.567-17,51-7.182,5.851-14.127,9.056-31,8v-3ZM14,140l6-26c27.026,0.214,45.384.617,56,14,3.913,4.933,7.061,11.684,5.549,20.349-0.15.863-.373,1.738-0.549,2.651-8.289,42.966-81,35-81,35l6-25H29s16.955-1.648,19-12c1.76-8.911-8-9-8-9H14Zm203,0s-9.75.769-14,4c-5.874,4.465-5.42,7.872-5,11,0.75,5.585,9,6,9,6h20s11.008,0.3,17,0c13.17-.667,17-13,17-13s0.5-4-2-6-7-2-7-2H217Zm186,20c2.96,1.259,11.195,2.568,17.346-3.107,3.122-2.881,8.758-10.81,3.654-15.893-3.419-3.405-15.211-1.216-20,4C399.428,149.98,398.416,155.929,403,160ZM292.156,79c7.819,0,14.156,6.716,14.156,15s-6.337,15-14.156,15S278,102.284,278,94,284.338,79,292.156,79Zm31.938,0c7.818,0,14.156,6.716,14.156,15s-6.338,15-14.156,15-14.156-6.716-14.156-15S316.275,79,324.094,79Zm73.812,0c7.819,0,14.156,6.716,14.156,15s-6.337,15-14.156,15-14.156-6.716-14.156-15S390.088,79,397.906,79Zm31.938,0C437.662,79,444,85.716,444,94s-6.338,15-14.156,15-14.156-6.716-14.156-15S422.025,79,429.844,79Z"/>
  <path id="icon" class="cls-2" d="M828.114,69.519l-24.451-8.563-0.088-.031-2.743-.961-24.539-8.594c-5.271-4.02,2.031-8.825,2.031-8.825,5.545,0.191,10.242-8.068,10.242-8.068,2.223-1.82,6.233-14.77,6.233-14.77C804.188,4.081,818.68,9,818.68,9L820.5,3.809a1.5,1.5,0,0,1,2.832.992l-1.819,5.194c1.137,0.445,14.2,5.947,11.895,23.235,0,0-4.946,12.623-4.345,15.431,0,0-1.481,9.386,2.971,12.7C832.032,61.355,834.741,69.666,828.114,69.519Zm-19.835-3.767A9,9,0,0,1,791.4,59.841Zm4.431,17.484a3.433,3.433,0,0,0,1.664-4.725,3.654,3.654,0,0,0-4.8-1.687,20.664,20.664,0,0,1-27.3-9.562,3.607,3.607,0,0,0-4.385-1.469,3.536,3.536,0,0,0-2.032,4.608A27.944,27.944,0,0,0,812.71,83.236Zm7.725,14.59a3.371,3.371,0,0,0,1.717-1.915,0.069,0.069,0,0,0,0-.01A3.315,3.315,0,0,0,822,93.354a3.458,3.458,0,0,0-4.538-1.585A38.04,38.04,0,0,1,767.294,74.2a4.1,4.1,0,0,0-.266-0.552,3.459,3.459,0,0,0-4.665-1.242,3.311,3.311,0,0,0-1.5,1.786c-0.029.083-.054,0.169-0.077,0.254A3.319,3.319,0,0,0,761.149,77,44.968,44.968,0,0,0,820.435,97.826Zm-34.583-69.92a2.342,2.342,0,0,0,2.54-2.125A22.6,22.6,0,0,1,797.082,9.6a2.276,2.276,0,0,0,.341-3.263,2.431,2.431,0,0,0-3.354-.345h0a27.482,27.482,0,0,0-10.41,19.436A2.341,2.341,0,0,0,785.852,27.906ZM835.3,46.511a2.377,2.377,0,0,1-.7-3.308,22.68,22.68,0,0,0,3.318-18.383,2.294,2.294,0,0,1,1.81-2.8,2.533,2.533,0,0,1,2.932,1.87h0a27.58,27.58,0,0,1-4.006,22.06A2.423,2.423,0,0,1,835.3,46.511Z"/>
  <path id="Zangeghtesad.ir" class="cls-3" d="M32.765,271l1.05-5.953H11.427l28.8-39.25H9.831l-1.04,5.9H28.73L-0.076,271H32.765Zm41.146-7.833q-1.455-3.217-.49-8.687a18.545,18.545,0,0,1,3.559-8.631,7.6,7.6,0,0,1,5.989-3.19,4.915,4.915,0,0,1,4.775,3.205q1.443,3.2.489,8.616a18.775,18.775,0,0,1-3.568,8.687,7.592,7.592,0,0,1-5.993,3.219A4.918,4.918,0,0,1,73.91,263.167ZM91.5,271l6.047-34.294H91.194q-0.239,1.681-.326,3.3a29.439,29.439,0,0,0,0,3.219,9.39,9.39,0,0,0-3.011-5.056,8.1,8.1,0,0,0-5.3-1.751q-5.554,0-9.845,4.87T67,254.2q-1.421,8.061,1.129,12.9a8.578,8.578,0,0,0,8.161,4.842,10.348,10.348,0,0,0,6.283-2.193,18.948,18.948,0,0,0,5.188-6.323q-0.611,1.851-1.128,3.731T85.688,271H91.5Zm62.181,0,4.023-22.815q1.014-5.752-.916-8.858t-6.545-3.1a11.516,11.516,0,0,0-7.03,2.393,19.882,19.882,0,0,0-5.594,7.007q0.633-2.138,1.213-4.373t1.043-4.543H134.12L128.074,271h6.351l2.954-16.748a19.2,19.2,0,0,1,3.718-8.972,7.928,7.928,0,0,1,6.227-3.333,3.571,3.571,0,0,1,3.559,1.866q0.91,1.866.212,5.825L147.328,271h6.352Zm44.664-9.371q-1.452-3.077-.527-8.317a17.508,17.508,0,0,1,3.472-8.3,7.6,7.6,0,0,1,5.994-3.062,4.965,4.965,0,0,1,4.8,3.076q1.465,3.077.547,8.289a17.421,17.421,0,0,1-3.5,8.317,7.63,7.63,0,0,1-5.969,3.076A4.957,4.957,0,0,1,198.344,261.629Zm-9.954,13.643a7.2,7.2,0,0,0,3.554,4.8,15.346,15.346,0,0,0,7.621,1.609,18.023,18.023,0,0,0,6.5-1.182,15.678,15.678,0,0,0,5.313-3.318,14.737,14.737,0,0,0,3.273-4.586,28.378,28.378,0,0,0,1.96-6.836l5.123-29.053h-6.181a32.872,32.872,0,0,0-.419,3.5A35.181,35.181,0,0,0,215.1,244a10.739,10.739,0,0,0-2.954-5.782,7.559,7.559,0,0,0-5.359-1.994,13.048,13.048,0,0,0-9.888,4.629,23.944,23.944,0,0,0-5.609,12.347q-1.326,7.52,1.273,12.162A8.529,8.529,0,0,0,200.513,270a10.275,10.275,0,0,0,5.407-1.51,13.939,13.939,0,0,0,4.416-4.443c-0.014.076-.033,0.181-0.056,0.313q-0.181,1.681-.318,2.45-0.939,5.327-3.277,7.847a8.283,8.283,0,0,1-6.384,2.521,6.95,6.95,0,0,1-3.685-.826,5.489,5.489,0,0,1-2.086-2.792Zm131.183-13.643q-1.452-3.077-.528-8.317a17.518,17.518,0,0,1,3.472-8.3,7.606,7.606,0,0,1,6-3.062,4.967,4.967,0,0,1,4.8,3.076q1.465,3.077.546,8.289a17.411,17.411,0,0,1-3.5,8.317,7.628,7.628,0,0,1-5.968,3.076A4.956,4.956,0,0,1,319.573,261.629Zm-9.954,13.643a7.2,7.2,0,0,0,3.554,4.8,15.342,15.342,0,0,0,7.62,1.609,18.019,18.019,0,0,0,6.5-1.182,15.693,15.693,0,0,0,5.314-3.318,14.717,14.717,0,0,0,3.272-4.586,28.287,28.287,0,0,0,1.96-6.836l5.123-29.053h-6.181a32.875,32.875,0,0,0-.418,3.5,35.181,35.181,0,0,0-.041,3.788,10.739,10.739,0,0,0-2.954-5.782,7.561,7.561,0,0,0-5.359-1.994,13.052,13.052,0,0,0-9.889,4.629,23.952,23.952,0,0,0-5.609,12.347q-1.326,7.52,1.273,12.162A8.531,8.531,0,0,0,321.742,270a10.275,10.275,0,0,0,5.407-1.51,13.937,13.937,0,0,0,4.415-4.443c-0.013.076-.032,0.181-0.055,0.313q-0.183,1.681-.318,2.45-0.939,5.327-3.278,7.847a8.279,8.279,0,0,1-6.383,2.521,6.952,6.952,0,0,1-3.686-.826,5.488,5.488,0,0,1-2.085-2.792ZM398.928,271l4.023-22.815q1.014-5.752-.916-8.858t-6.545-3.1a11.116,11.116,0,0,0-6.684,2.208,17.791,17.791,0,0,0-5.195,6.366q0.808-2.649,1.341-4.7t0.779-3.447l2.039-11.564h-6.352L373.322,271h6.352l2.953-16.748a19.209,19.209,0,0,1,3.718-8.972,7.931,7.931,0,0,1,6.227-3.333,3.571,3.571,0,0,1,3.559,1.866q0.911,1.866.212,5.825L392.576,271h6.352Zm45.713-45.2-1.924,10.909h-6.351l-0.854,4.843h6.352L436.671,271h6.351l5.194-29.451h6.323l0.853-4.843h-6.323l1.924-10.909h-6.352Zm47.18,17.631a8.2,8.2,0,0,1,5.987-2.535,5.565,5.565,0,0,1,5.039,2.521q1.62,2.522,1.219,7.221H488.03A15.709,15.709,0,0,1,491.821,243.428Zm10.322,18.116a16.109,16.109,0,0,1-4.206,3.816,8.671,8.671,0,0,1-4.426,1.2,5.838,5.838,0,0,1-5.359-3.048q-1.8-3.048-.949-7.861l0.131-.741h21.988l0.106-.6q1.536-8.717-1.371-13.629t-9.544-4.914a15.072,15.072,0,0,0-11.227,4.871q-4.7,4.87-6.175,13.216-1.493,8.46,1.547,13.273t9.847,4.814a15.319,15.319,0,0,0,7.273-1.752,20.8,20.8,0,0,0,6.3-5.426Zm64.176-19.882a10.768,10.768,0,0,0-4.351-4.4,13.459,13.459,0,0,0-6.515-1.5,13.093,13.093,0,0,0-8.378,2.849,11.529,11.529,0,0,0-4.366,7.234,7.546,7.546,0,0,0,.37,4.444,8.886,8.886,0,0,0,3.213,3.5,24.207,24.207,0,0,0,4.96,2.079q1.854,0.627,2.872,1a8.3,8.3,0,0,1,3.519,2.094,3.321,3.321,0,0,1,.706,2.862,5.079,5.079,0,0,1-2.327,3.418,8.217,8.217,0,0,1-4.688,1.311,8.774,8.774,0,0,1-4.7-1.268,9.548,9.548,0,0,1-3.366-3.688l-5.1,3.9a12.727,12.727,0,0,0,4.962,4.813,14.912,14.912,0,0,0,7.119,1.624,14.753,14.753,0,0,0,9.307-2.948,12.186,12.186,0,0,0,4.664-7.79,8.4,8.4,0,0,0-.433-5.141,10.191,10.191,0,0,0-4.037-3.917,46.176,46.176,0,0,0-6.677-2.677l-0.994-.342a6.583,6.583,0,0,1-2.929-1.723,2.829,2.829,0,0,1-.558-2.407,4.41,4.41,0,0,1,1.948-2.891,6.5,6.5,0,0,1,3.835-1.154,6.888,6.888,0,0,1,3.865,1.1,10.325,10.325,0,0,1,3.06,3.4Zm37.311,21.5q-1.454-3.217-.49-8.687a18.551,18.551,0,0,1,3.559-8.631,7.6,7.6,0,0,1,5.988-3.19,4.917,4.917,0,0,1,4.776,3.205q1.443,3.2.488,8.616a18.768,18.768,0,0,1-3.568,8.687,7.592,7.592,0,0,1-5.994,3.219A4.919,4.919,0,0,1,603.63,263.167ZM621.219,271l6.047-34.294h-6.352q-0.238,1.681-.326,3.3a29.539,29.539,0,0,0,0,3.219,9.392,9.392,0,0,0-3.01-5.056,8.1,8.1,0,0,0-5.3-1.751q-5.553,0-9.845,4.87t-5.707,12.9q-1.422,8.061,1.128,12.9a8.578,8.578,0,0,0,8.162,4.842,10.348,10.348,0,0,0,6.282-2.193,18.947,18.947,0,0,0,5.188-6.323q-0.611,1.851-1.128,3.731T615.409,271h5.81Zm44.951-7.847q-1.467-3.233-.507-8.673a18.54,18.54,0,0,1,3.558-8.631,7.6,7.6,0,0,1,5.989-3.19,4.957,4.957,0,0,1,4.815,3.219q1.455,3.219.506,8.6a18.879,18.879,0,0,1-3.554,8.687,7.577,7.577,0,0,1-6.008,3.219A4.959,4.959,0,0,1,666.17,263.153ZM683.742,271l8.1-45.915h-6.295l-1.883,10.681q-0.427,2.423-.561,4.23a18.4,18.4,0,0,0,.014,3.233,9.387,9.387,0,0,0-3.011-5.056,8.1,8.1,0,0,0-5.3-1.751q-5.554,0-9.845,4.87t-5.708,12.9q-1.421,8.061,1.129,12.9a8.578,8.578,0,0,0,8.161,4.842,10.475,10.475,0,0,0,6.342-2.207,18.665,18.665,0,0,0,5.186-6.309q-0.69,2.136-1.236,4.016t-0.9,3.56h5.811Zm43.058-.911a5.577,5.577,0,0,0,1.96-3.361,3.924,3.924,0,0,0-.779-3.333,3.823,3.823,0,0,0-3.12-1.367,5.388,5.388,0,0,0-3.574,1.367,5.537,5.537,0,0,0-1.955,3.333,3.982,3.982,0,0,0,.761,3.361,3.779,3.779,0,0,0,3.105,1.367A5.423,5.423,0,0,0,726.8,270.089Zm50.59-43.864a4.6,4.6,0,0,0-3.374-1.14,6.034,6.034,0,0,0-3.718,1.14,4.646,4.646,0,0,0-1.857,3.019,3.262,3.262,0,0,0,.8,3.033,4.425,4.425,0,0,0,3.3,1.154,6.139,6.139,0,0,0,3.766-1.168,4.659,4.659,0,0,0,1.9-3.019A3.209,3.209,0,0,0,777.39,226.225ZM769.139,271l5.851-33.183h-6.352L762.787,271h6.352Zm42.755,0,2.727-15.466a20.128,20.128,0,0,1,3.557-8.944q2.562-3.3,5.894-3.3a4.92,4.92,0,0,1,1.389.2,7.435,7.435,0,0,1,1.457.627l2.708-7.121a14.987,14.987,0,0,0-1.82-.584,6.48,6.48,0,0,0-1.491-.185,8.349,8.349,0,0,0-5.56,2.293,24.986,24.986,0,0,0-5.184,7.107q0.724-2.649,1.248-4.814t0.894-4.1h-6.124L805.542,271h6.352Z"/>
  <path id="e" class="cls-1" d="M262.979,243.428a8.2,8.2,0,0,1,5.987-2.535A5.563,5.563,0,0,1,274,243.414q1.621,2.522,1.22,7.221H259.188A15.7,15.7,0,0,1,262.979,243.428ZM273.3,261.544a16.091,16.091,0,0,1-4.2,3.816,8.671,8.671,0,0,1-4.426,1.2,5.838,5.838,0,0,1-5.359-3.048q-1.8-3.048-.949-7.861l0.13-.741H280.48l0.106-.6q1.536-8.717-1.371-13.629t-9.544-4.914a15.07,15.07,0,0,0-11.227,4.871q-4.7,4.87-6.175,13.216-1.493,8.46,1.547,13.273t9.847,4.814a15.319,15.319,0,0,0,7.273-1.752,20.8,20.8,0,0,0,6.3-5.426Z"/>
</svg>
